<?xml version="1.0" encoding="UTF-8" standalone="no"?>
<!-- Created with Inkscape (http://www.inkscape.org/) -->

<svg
   version="1.1"
   id="svg2"
   xml:space="preserve"
   width="333.33334"
   height="261.32001"
   viewBox="0 0 333.33334 261.32001"
   sodipodi:docname="sdsu_primary_logo_cmyk_stacked_reverse.svg"
   inkscape:version="1.1.2 (0a00cf5339, 2022-02-04)"
   xmlns:inkscape="http://www.inkscape.org/namespaces/inkscape"
   xmlns:sodipodi="http://sodipodi.sourceforge.net/DTD/sodipodi-0.dtd"
   xmlns="http://www.w3.org/2000/svg"
   xmlns:svg="http://www.w3.org/2000/svg"><defs
     id="defs6" /><sodipodi:namedview
     id="namedview4"
     pagecolor="#ffffff"
     bordercolor="#666666"
     borderopacity="1.0"
     inkscape:pageshadow="2"
     inkscape:pageopacity="0.0"
     inkscape:pagecheckerboard="0"
     showgrid="false"
     inkscape:zoom="3.3407316"
     inkscape:cx="166.58028"
     inkscape:cy="130.66"
     inkscape:window-width="5068"
     inkscape:window-height="2075"
     inkscape:window-x="52"
     inkscape:window-y="48"
     inkscape:window-maximized="1"
     inkscape:current-layer="g8" /><g
     id="g8"
     inkscape:groupmode="layer"
     inkscape:label="ink_ext_XXXXXX"
     transform="matrix(1.3333333,0,0,-1.3333333,0,261.32)"><g
       id="g10"
       transform="scale(0.1)"><path
         d="m 1572.2,1648.31 c -87.11,33.94 -128.4,53.88 -127.84,101.25 0.43,48.08 39.03,76.22 91.21,76.22 33.04,0 69.65,-11.1 110.1,-35.27 v -64.61 l 38.48,38.5 c 0.06,-0.04 0.12,-0.09 0.18,-0.13 l 101.54,101.53 c -73.68,60.24 -160.65,95.16 -253.83,94.03 -136.18,-1.55 -243.65,-94.88 -243.65,-217.06 0,-142.97 114.68,-196.13 229.51,-236.29 91.77,-31.82 132.07,-51.62 132.07,-107.47 0,-46.95 -36.62,-80.32 -109.17,-80.32 -43,0 -92.84,15.66 -138.62,48.98 v 72.66 l -42.21,-42.22 0.04,-0.03 -96.93,-96.93 c 79.47,-81.03 178.17,-118.22 275.18,-118.22 124.16,0 268.68,67.88 268.68,233.75 0,146.08 -103.8,180.58 -234.74,231.63"
         style="fill:#da1a38;fill-opacity:1;fill-rule:nonzero;stroke:none"
         id="path12" /><path
         d="m 309.121,1648.31 c -87.105,33.94 -128.402,53.88 -127.832,101.25 0.422,48.08 39.027,76.22 91.207,76.22 33.043,0 69.649,-11.1 110.098,-35.27 v -64.61 l 38.476,38.5 c 0.063,-0.04 0.125,-0.09 0.188,-0.13 l 101.535,101.53 c -73.676,60.24 -160.645,95.16 -253.832,94.03 -136.18,-1.55 -243.6485,-94.88 -243.6485,-217.06 0,-142.97 114.6835,-196.13 229.5035,-236.29 91.778,-31.82 132.079,-51.62 132.079,-107.47 0,-46.95 -36.625,-80.32 -109.168,-80.32 -43.004,0 -92.848,15.66 -138.625,48.98 v 72.66 l -42.2036,-42.22 0.0352,-0.03 L 0,1301.15 c 79.4727,-81.03 178.176,-118.22 275.184,-118.22 124.156,0 268.675,67.88 268.675,233.75 0,146.08 -103.796,180.58 -234.738,231.63"
         style="fill:#da1a38;fill-opacity:1;fill-rule:nonzero;stroke:none"
         id="path14" /><path
         d="m 2287.43,1950.98 59.93,-59.92 v -375.2 c 0,-121.04 -66.26,-191.99 -158.09,-191.99 -99.66,0 -155.47,82.95 -155.47,191.99 v 435.12 H 1883 1823.31 L 1883,1891.3 v -385.35 c 0,-207.13 123.66,-322.95 306.27,-322.95 195.14,0 308.34,125.72 308.34,322.95 v 445.03 h -210.18"
         style="fill:#da1a38;fill-opacity:1;fill-rule:nonzero;stroke:none"
         id="path16" /><path
         d="m 832.781,1325.94 -63.558,0.02 v 490.43 h 72.945 c 136.699,0 234.792,-103.82 234.792,-246.25 0,-138.79 -96.522,-244.2 -244.179,-244.2 z M 839.043,1951 H 621.047 v -0.02 H 561.68 l 59.367,-59.36 0.008,-640.38 -59.375,-59.37 h 59.375 0.312 220.809 c 244.184,0 390.784,154.43 390.784,378.27 0,224.34 -153.92,380.86 -393.917,380.86"
         style="fill:#da1a38;fill-opacity:1;fill-rule:nonzero;stroke:none"
         id="path18" /><path
         d="m 117.758,452.961 c -16.121,0 -31.1525,2.027 -45.0978,6.078 -13.9493,4.039 -25.2618,9.41 -33.9493,16.121 l -2.6093,55.32 H 54.207 c 11.4805,-39.5 32.8633,-59.3 64.148,-59.41 14.743,0 26.329,3.379 34.778,10.149 8.433,6.761 12.656,15.82 12.656,27.172 0,11.558 -3.812,20.39 -11.426,26.5 -7.617,6.121 -22.633,13.039 -45.047,20.789 -22.4215,7.742 -39.8472,16.851 -52.2808,27.332 -12.4336,10.468 -18.6524,25.418 -18.6524,44.84 0,19.418 7.6133,35.359 22.836,47.839 15.2187,12.258 35.5273,18.379 60.9332,18.379 25.403,0 48.371,-6.851 68.926,-20.558 v -51.223 h -16.152 c -9.637,35.781 -28.914,53.672 -57.821,53.672 -12.484,0 -22.1441,-3.27 -28.9839,-9.82 -6.8398,-6.539 -10.2578,-15 -10.2578,-25.36 0,-10.59 3.4726,-18.929 10.418,-25.043 7.0546,-6.109 22.0937,-13.039 45.1057,-20.777 23.09,-7.75 40.847,-17.082 53.258,-27.992 12.41,-10.91 18.625,-26.731 18.625,-47.449 0,-20.739 -8.368,-37.008 -25.102,-48.829 -16.508,-11.82 -37.316,-17.73 -62.41,-17.73"
         style="fill:#ffffff;fill-opacity:1;fill-rule:nonzero;stroke:none"
         id="path20" /><path
         d="m 270.844,509.469 c 0,-19.18 9.062,-28.77 27.176,-28.77 9.539,0 19.894,3.86 31.062,11.61 v 58.703 l -38.879,-15.211 c -12.902,-4.91 -19.359,-13.68 -19.359,-26.332 z m 111.418,-30.571 c 5.328,0 10.437,0.711 15.332,2.122 l 1.961,-10.758 c -11.528,-11.532 -24.2,-17.301 -38.008,-17.301 -16.531,0 -27.027,10.117 -31.488,30.348 -16.7,-20.008 -35.02,-30.02 -54.973,-30.02 -14.254,0 -25.262,4.242 -33.039,12.742 -7.774,8.489 -11.656,19.59 -11.656,33.309 0,13.621 4.109,23.98 12.336,31.058 8.222,7.09 19.421,13.032 33.601,17.821 l 52.754,19.133 v 17.668 c 0,24.3 -9.539,36.511 -28.617,36.621 -16.266,0 -24.344,-7.852 -24.235,-23.551 0,-6.211 0.758,-12.531 2.278,-18.961 l -31.399,-4.41 c -6.793,4.222 -10.242,10.781 -10.355,19.66 0,13.992 6.324,24.883 18.992,32.68 12.664,7.812 29.109,11.652 49.328,11.55 42.973,0 64.461,-20.32 64.461,-60.949 l -0.976,-77.672 c 0,-14.058 4.566,-21.09 13.703,-21.09"
         style="fill:#ffffff;fill-opacity:1;fill-rule:nonzero;stroke:none"
         id="path22" /><path
         d="m 547.023,490.32 v 90.211 c 0,10.231 -2.226,17.617 -6.687,22.188 -4.461,4.57 -11.582,6.851 -21.371,6.851 -15.555,0 -30.125,-4.789 -43.715,-14.351 V 490.32 c 0,-7.179 1.73,-11.851 5.215,-14.019 3.48,-2.18 9.519,-3.871 18.109,-5.071 v -15 h -87.765 v 15 c 5.984,0.879 10.386,1.739 13.214,2.622 2.829,0.859 5.329,2.609 7.508,5.207 2.172,2.613 3.258,6.371 3.258,11.261 v 108.969 l -22.348,14.359 v 8.321 l 53.504,17.293 h 9.305 v -34.09 c 21.418,22.289 42.793,33.437 64.109,33.437 32.079,0 48.121,-18.281 48.121,-54.82 V 490.32 c 0,-7.179 1.797,-11.851 5.383,-14.019 3.59,-2.18 9.84,-3.871 18.758,-5.071 v -15 h -88.254 v 15 c 8.703,1.09 14.789,2.731 18.274,4.899 3.476,2.18 5.277,6.902 5.382,14.191"
         style="fill:#ffffff;fill-opacity:1;fill-rule:nonzero;stroke:none"
         id="path24" /><path
         d="M 799.543,672.699 H 776.379 V 497.988 c 0,-9.359 2.281,-15.66 6.855,-18.929 4.563,-3.258 12.559,-4.829 23.977,-4.719 h 6.035 c 23.817,0.101 42.359,8.531 55.625,25.281 13.164,16.75 19.738,40.457 19.738,71.129 0,30.66 -7.394,55.289 -22.183,73.891 -14.789,18.711 -37.082,28.058 -66.883,28.058 z m -97.223,18.11 h 104.684 c 41.719,0 73.469,-10.34 95.262,-31 21.781,-20.661 32.73,-47.52 32.839,-80.579 0,-38.5 -11.277,-68.628 -33.824,-90.378 -22.547,-21.75 -51.633,-32.622 -87.25,-32.622 H 702.32 v 15.989 c 11.961,0.429 20.231,2.222 24.793,5.383 4.567,3.148 6.856,9.398 6.856,18.757 v 154.653 c 0,9.34 -2.289,15.539 -6.856,18.59 -4.562,3.039 -12.832,4.726 -24.793,5.058 v 16.149"
         style="fill:#ffffff;fill-opacity:1;fill-rule:nonzero;stroke:none"
         id="path26" /><path
         d="m 1006.13,658.668 c -6.712,0 -12.286,2.453 -16.732,7.344 -4.437,4.789 -6.66,10.66 -6.66,17.617 0,6.961 1.657,12.883 4.973,17.781 3.316,4.891 8.676,7.34 16.069,7.34 7.4,0 13.49,-2.449 18.27,-7.34 4.79,-4.898 7.18,-10.769 7.18,-17.621 0,-6.848 -2.17,-12.769 -6.51,-17.777 -4.35,-5 -9.88,-7.453 -16.59,-7.344 z m 19.02,-20.059 V 490.32 c 0,-7.179 1.8,-11.851 5.38,-14.019 3.59,-2.18 9.84,-3.871 18.77,-5.071 v -15 h -88.585 v 15 c 5.98,0.879 10.383,1.739 13.215,2.622 2.828,0.859 5.328,2.609 7.508,5.207 2.171,2.613 3.257,6.371 3.257,11.261 v 109.621 l -22.351,14.028 v 8 l 53.506,16.64 h 9.3"
         style="fill:#ffffff;fill-opacity:1;fill-rule:nonzero;stroke:none"
         id="path28" /><path
         d="m 1190.73,569.441 c 0,15.707 -3.1,28.149 -9.28,37.309 -6.19,9.16 -15.14,13.75 -26.86,13.75 -11.72,0 -21.27,-4.91 -28.65,-14.73 -7.27,-9.821 -11.56,-21.93 -12.86,-36.329 z m -32.72,69.168 c 23.68,0 41.63,-6.968 53.86,-20.89 12.22,-13.918 18.34,-32.028 18.34,-54.321 V 552.48 H 1112.1 c 0,-20.23 5.26,-36.55 15.79,-48.949 10.53,-12.39 24.58,-18.59 42.16,-18.59 21.3,0 39.01,9.028 53.14,27.079 l 7.34,-4.411 c -4.33,-16.859 -13,-30.179 -25.99,-39.961 -13,-9.789 -29.16,-14.687 -48.49,-14.687 -25.26,0 -45.48,8.16 -60.66,24.469 -15.18,16.32 -22.77,38.172 -22.77,65.582 0,27.187 8.21,49.918 24.62,68.187 16.52,18.27 36.78,27.41 60.77,27.41"
         style="fill:#ffffff;fill-opacity:1;fill-rule:nonzero;stroke:none"
         id="path30" /><path
         d="m 1330.12,535.02 c 19.95,0.109 29.93,14.179 29.93,42.21 0,12.879 -3.04,23.719 -9.11,32.52 -6.07,8.801 -14.48,13.199 -25.22,13.199 -19.31,0 -28.96,-13.59 -28.96,-40.75 0,-13.238 3.04,-24.437 9.11,-33.609 6.08,-9.051 14.16,-13.57 24.25,-13.57 z m 35.24,-79.45 h -83.12 c -4.46,-4.5 -6.69,-10.48 -6.69,-17.949 0,-22.5 17.56,-33.699 52.68,-33.59 18.76,0 33.75,2.848 44.99,8.559 11.23,5.711 16.9,14.16 17.01,25.359 0,6.699 -2.07,11.313 -6.21,13.84 -4.15,2.531 -10.36,3.781 -18.66,3.781 z m -37.4,64.442 c -11.33,0 -22.06,1.679 -32.19,5.058 -8.37,-8.48 -12.55,-15.832 -12.55,-22.019 0,-6.199 3.74,-9.36 11.23,-9.473 h 77.12 c 34.19,0 51.29,-14.148 51.29,-42.449 0,-19.231 -9.21,-34.731 -27.64,-46.457 -18.42,-11.742 -41.26,-17.613 -68.52,-17.613 -54.44,0 -81.6,13.601 -81.49,40.793 0,13.808 10.22,24.628 30.67,32.457 -13.81,5.113 -20.72,14.511 -20.72,28.222 0,13.699 10.73,27.18 32.19,40.449 -20.04,10.36 -30.07,26.598 -30.07,48.75 0,18.52 6.64,33.321 19.93,44.411 13.39,10.98 30.69,16.468 51.93,16.468 10.85,0 21.15,-1.738 30.91,-5.218 l 60.99,3.589 V 613 h -13.05 l -31.65,6.691 v -1.871 c 15.46,-9.109 23.19,-22.34 23.19,-39.679 -0.11,-17.34 -6.7,-31.403 -19.77,-42.161 -13.07,-10.75 -30.34,-16.082 -51.8,-15.968"
         style="fill:#ffffff;fill-opacity:1;fill-rule:nonzero;stroke:none"
         id="path32" /><path
         d="m 1524.08,618.871 c -14.05,-0.109 -24.62,-6.32 -31.71,-18.609 -6.97,-12.313 -10.45,-29.25 -10.45,-50.832 0,-21.59 4.24,-39.711 12.74,-54.391 8.5,-14.891 19.78,-22.34 33.83,-22.34 14.06,0 24.68,6.16 31.87,18.461 7.19,12.301 10.73,29.238 10.63,50.82 0,21.579 -4.31,39.77 -12.92,54.551 -8.61,14.891 -19.94,22.34 -33.99,22.34 z m 0.32,-165.91 c -25.16,0 -45.47,8.418 -60.91,25.25 -15.34,16.828 -23.01,38.84 -23.01,66.039 0,27.191 8.27,49.711 24.81,67.57 16.64,17.86 37.54,26.789 62.71,26.789 25.17,0 45.56,-8.39 61.16,-25.148 15.51,-16.871 23.26,-39.031 23.26,-66.461 0,-27.488 -8.35,-50.039 -25.05,-67.629 -16.81,-17.609 -37.8,-26.41 -62.97,-26.41"
         style="fill:#ffffff;fill-opacity:1;fill-rule:nonzero;stroke:none"
         id="path34" /><path
         d="m 1792.6,452.961 c -16.12,0 -31.15,2.027 -45.1,6.078 -13.94,4.039 -25.25,9.41 -33.94,16.121 l -2.61,55.32 h 18.1 c 11.49,-39.5 32.87,-59.3 64.15,-59.41 14.74,0 26.34,3.379 34.78,10.149 8.43,6.761 12.66,15.82 12.66,27.172 0,11.558 -3.82,20.39 -11.43,26.5 -7.62,6.121 -22.63,13.039 -45.05,20.789 -22.42,7.742 -39.84,16.851 -52.28,27.332 -12.43,10.468 -18.65,25.418 -18.65,44.84 0,19.418 7.61,35.359 22.83,47.839 15.22,12.258 35.53,18.379 60.94,18.379 25.4,0 48.37,-6.851 68.92,-20.558 v -51.223 h -16.15 c -9.63,35.781 -28.91,53.672 -57.82,53.672 -12.49,0 -22.15,-3.27 -28.98,-9.82 -6.84,-6.539 -10.26,-15 -10.26,-25.36 0,-10.59 3.47,-18.929 10.42,-25.043 7.05,-6.109 22.09,-13.039 45.1,-20.777 23.09,-7.75 40.85,-17.082 53.26,-27.992 12.41,-10.91 18.62,-26.731 18.62,-47.449 0,-20.739 -8.36,-37.008 -25.1,-48.829 -16.5,-11.82 -37.31,-17.73 -62.41,-17.73"
         style="fill:#ffffff;fill-opacity:1;fill-rule:nonzero;stroke:none"
         id="path36" /><path
         d="m 1957.44,674.98 v -39.628 h 48.77 v -19.75 h -48.77 V 501.441 c 0,-8.832 1.96,-15.121 5.87,-18.871 3.92,-3.75 10.55,-5.629 19.9,-5.629 9.35,0 18.6,2.379 27.73,7.118 l 4.25,-10.168 c -13.82,-13.95 -31.87,-20.93 -54.16,-20.93 -29.37,0 -44.05,14.5 -44.05,43.48 v 119.161 h -23.65 v 12.519 c 19.54,10.27 36.85,25.891 51.93,46.859 h 12.18"
         style="fill:#ffffff;fill-opacity:1;fill-rule:nonzero;stroke:none"
         id="path38" /><path
         d="m 2074.56,509.469 c 0,-19.18 9.06,-28.77 27.18,-28.77 9.54,0 19.89,3.86 31.06,11.61 v 58.703 l -38.88,-15.211 c -12.9,-4.91 -19.36,-13.68 -19.36,-26.332 z m 111.42,-30.571 c 5.33,0 10.44,0.711 15.33,2.122 l 1.96,-10.758 c -11.53,-11.532 -24.2,-17.301 -38.01,-17.301 -16.53,0 -27.02,10.117 -31.48,30.348 -16.7,-20.008 -35.02,-30.02 -54.98,-30.02 -14.25,0 -25.26,4.242 -33.04,12.742 -7.77,8.489 -11.65,19.59 -11.65,33.309 0,13.621 4.11,23.98 12.34,31.058 8.22,7.09 19.42,13.032 33.6,17.821 l 52.75,19.133 v 17.668 c 0,24.3 -9.54,36.511 -28.62,36.621 -16.26,0 -24.34,-7.852 -24.23,-23.551 0,-6.211 0.75,-12.531 2.27,-18.961 l -31.39,-4.41 c -6.79,4.222 -10.24,10.781 -10.36,19.66 0,13.992 6.33,24.883 18.99,32.68 12.67,7.812 29.11,11.652 49.33,11.55 42.98,0 64.46,-20.32 64.46,-60.949 l -0.97,-77.672 c 0,-14.058 4.56,-21.09 13.7,-21.09"
         style="fill:#ffffff;fill-opacity:1;fill-rule:nonzero;stroke:none"
         id="path40" /><path
         d="m 2270.65,674.98 v -39.628 h 48.77 v -19.75 h -48.77 V 501.441 c 0,-8.832 1.95,-15.121 5.87,-18.871 3.91,-3.75 10.55,-5.629 19.9,-5.629 9.35,0 18.6,2.379 27.73,7.118 l 4.24,-10.168 c -13.81,-13.95 -31.86,-20.93 -54.16,-20.93 -29.36,0 -44.04,14.5 -44.04,43.48 v 119.161 h -23.65 v 12.519 c 19.53,10.27 36.84,25.891 51.93,46.859 h 12.18"
         style="fill:#ffffff;fill-opacity:1;fill-rule:nonzero;stroke:none"
         id="path42" /><path
         d="m 2460.2,569.441 c 0,15.707 -3.1,28.149 -9.28,37.309 -6.19,9.16 -15.14,13.75 -26.86,13.75 -11.72,0 -21.27,-4.91 -28.65,-14.73 -7.27,-9.821 -11.56,-21.93 -12.86,-36.329 z m -32.72,69.168 c 23.68,0 41.63,-6.968 53.86,-20.89 12.22,-13.918 18.34,-32.028 18.34,-54.321 V 552.48 h -118.11 c 0,-20.23 5.26,-36.55 15.79,-48.949 10.53,-12.39 24.58,-18.59 42.17,-18.59 21.29,0 39,9.028 53.13,27.079 l 7.34,-4.411 c -4.33,-16.859 -13,-30.179 -25.99,-39.961 -13,-9.789 -29.16,-14.687 -48.49,-14.687 -25.26,0 -45.48,8.16 -60.65,24.469 -15.19,16.32 -22.78,38.172 -22.78,65.582 0,27.187 8.21,49.918 24.62,68.187 16.52,18.27 36.78,27.41 60.77,27.41"
         style="fill:#ffffff;fill-opacity:1;fill-rule:nonzero;stroke:none"
         id="path44" /><path
         d="M 100.211,264.25 V 153.148 c 0,-20.16 4.793,-35.718 14.379,-46.668 9.469,-10.9605 24.121,-16.3784 43.937,-16.2691 19.821,0 35.121,5.0899 45.903,15.2771 10.781,10.192 16.226,27.012 16.336,50.461 V 264.25 c -0.11,9.199 -2.668,15.398 -7.668,18.57 -5.004,3.18 -13.375,4.93 -25.125,5.258 v 15.66 h 87.113 v -15.66 c -11.746,-0.328 -19.898,-2.027 -24.473,-5.098 -4.562,-3.062 -6.843,-9.312 -6.843,-18.73 V 148.391 c 0,-26.692 -8.606,-47.051 -25.801,-61.1019 C 200.777,73.25 178.074,66.2305 149.871,66.2305 c -28.207,0 -50.6288,6.9101 -67.2733,20.7383 C 65.957,100.801 57.6914,121.441 57.8008,148.879 V 264.25 c 0,9.418 -2.3125,15.668 -6.9258,18.73 -4.6133,3.071 -12.8555,4.77 -24.7227,5.098 v 15.66 H 132.023 v -15.66 c -11.976,-0.328 -20.277,-2.027 -24.89,-5.098 -4.613,-3.062 -6.922,-9.312 -6.922,-18.73"
         style="fill:#ffffff;fill-opacity:1;fill-rule:nonzero;stroke:none"
         id="path46" /><path
         d="m 423.047,103.25 v 90.219 c 0,10.222 -2.231,17.621 -6.692,22.179 -4.46,4.571 -11.578,6.852 -21.367,6.852 -15.554,0 -30.125,-4.789 -43.715,-14.352 V 103.25 c 0,-7.1719 1.731,-11.8516 5.215,-14.0195 3.481,-2.1797 9.52,-3.8711 18.11,-5.0586 V 69.1602 h -87.766 v 15.0117 c 5.981,0.8672 10.383,1.7383 13.215,2.6094 2.824,0.8671 5.328,2.6093 7.508,5.2187 2.172,2.6094 3.258,6.3594 3.258,11.25 v 108.98 l -22.352,14.348 v 8.32 l 53.508,17.293 h 9.304 v -34.089 c 21.418,22.289 42.793,33.437 64.11,33.437 32.078,0 48.121,-18.269 48.121,-54.809 v -93.48 c 0,-7.1719 1.797,-11.8516 5.383,-14.0195 3.59,-2.1797 9.84,-3.8711 18.758,-5.0586 V 69.1602 h -88.254 v 15.0117 c 8.703,1.0781 14.789,2.7187 18.273,4.8867 3.477,2.1797 5.274,6.9102 5.383,14.1914"
         style="fill:#ffffff;fill-opacity:1;fill-rule:nonzero;stroke:none"
         id="path48" /><path
         d="m 553.613,271.609 c -6.715,0 -12.293,2.442 -16.734,7.34 -4.438,4.781 -6.66,10.653 -6.66,17.61 0,6.961 1.656,12.89 4.972,17.781 3.317,4.898 8.672,7.351 16.071,7.351 7.394,0 13.484,-2.453 18.269,-7.351 4.785,-4.891 7.176,-10.762 7.176,-17.61 0,-6.851 -2.164,-12.781 -6.512,-17.781 -4.343,-5.008 -9.875,-7.449 -16.582,-7.34 z m 19.02,-20.07 V 103.25 c 0,-7.1719 1.793,-11.8516 5.383,-14.0195 3.586,-2.1797 9.839,-3.8711 18.761,-5.0586 V 69.1602 h -88.582 v 15.0117 c 5.981,0.8672 10.383,1.7383 13.215,2.6094 2.824,0.8671 5.328,2.6093 7.508,5.2187 2.172,2.6094 3.258,6.3594 3.258,11.25 v 109.629 l -22.352,14.031 v 7.988 l 53.508,16.641 h 9.301"
         style="fill:#ffffff;fill-opacity:1;fill-rule:nonzero;stroke:none"
         id="path50" /><path
         d="M 793.02,248.281 V 233.27 c -7.403,-2.93 -12.075,-4.989 -14.028,-6.192 -1.961,-1.187 -3.758,-3.578 -5.387,-7.16 L 705.91,66.5508 H 695.145 L 624.344,219.918 c -1.414,3.363 -3.207,5.75 -5.387,7.16 -2.172,1.422 -6.848,3.473 -14.027,6.192 v 15.011 h 88.578 V 233.27 c -9.356,-1.309 -15.656,-2.719 -18.922,-4.239 -5.656,-2.492 -6.363,-8.351 -2.121,-17.57 l 37.031,-90.691 38.172,90.691 c 1.523,4.449 2.281,8.129 2.281,11.059 0,2.941 -1.629,5.101 -4.894,6.511 -3.258,1.418 -9.407,2.828 -18.43,4.239 v 15.011 h 66.395"
         style="fill:#ffffff;fill-opacity:1;fill-rule:nonzero;stroke:none"
         id="path52" /><path
         d="m 920.102,182.371 c 0,15.719 -3.098,28.149 -9.282,37.309 -6.187,9.172 -15.136,13.75 -26.863,13.75 -11.719,0 -21.269,-4.899 -28.648,-14.719 -7.266,-9.82 -11.555,-21.941 -12.856,-36.34 z m -32.723,69.168 c 23.68,0 41.633,-6.961 53.859,-20.879 12.227,-13.922 18.34,-32.031 18.34,-54.32 V 165.41 H 841.473 c 0,-20.23 5.261,-36.539 15.789,-48.941 10.531,-12.399 24.582,-18.5979 42.164,-18.5979 21.301,0 39.008,9.0269 53.137,27.0779 l 7.339,-4.398 c -4.328,-16.86 -12.996,-30.1799 -25.992,-39.9729 -12.992,-9.789 -29.164,-14.6797 -48.484,-14.6797 -25.262,0 -45.481,8.1602 -60.66,24.4727 -15.184,16.3089 -22.774,38.1679 -22.774,65.5779 0,27.18 8.207,49.91 24.617,68.18 16.52,18.269 36.778,27.41 60.77,27.41"
         style="fill:#ffffff;fill-opacity:1;fill-rule:nonzero;stroke:none"
         id="path54" /><path
         d="m 1044.73,252.191 v -54.812 c 9.68,21.211 17.88,35.57 24.63,43.07 6.74,7.5 15.33,11.199 25.77,11.09 5.33,0 9.68,-1.418 13.06,-4.238 V 210.43 h -7.35 c -11.85,0 -21.91,-1.52 -30.17,-4.571 -8.27,-3.039 -16.91,-9.507 -25.94,-19.41 V 103.91 c 0,-7.6092 1.95,-12.3983 5.87,-14.3592 3.92,-1.9492 12.23,-3.75 24.96,-5.3789 V 69.1602 h -95.267 v 15.0117 c 5.98,0.8672 10.383,1.7383 13.215,2.6094 2.824,0.8671 5.328,2.6093 7.502,5.2187 2.18,2.6094 3.26,6.3594 3.26,11.25 v 108.98 l -22.348,14.348 v 8.32 l 53.178,17.293 h 9.63"
         style="fill:#ffffff;fill-opacity:1;fill-rule:nonzero;stroke:none"
         id="path56" /><path
         d="m 1192.2,65.8984 c -26.32,0 -47.36,5.7618 -63.13,17.293 l -1.96,43.1606 h 17.29 c 6.63,-28.9926 22.89,-43.4926 48.78,-43.4926 10,0 17.94,2.1914 23.82,6.539 5.76,4.3711 8.64,10.8516 8.64,19.4606 0,8.61 -3.21,15.2 -9.63,19.782 -6.41,4.57 -18.16,9.257 -35.23,14.058 -17.08,4.801 -30.01,11.332 -38.83,19.621 -8.8,8.282 -13.21,20.379 -13.21,36.289 0,15.911 5.55,28.711 16.64,38.403 11.1,9.687 26.86,14.527 47.31,14.527 20.23,0 38.44,-4.687 54.65,-14.078 v -40.152 h -16.97 c -5.11,24.73 -18.82,37.16 -41.11,37.269 -8.48,0 -15.17,-2.238 -20.06,-6.707 -4.89,-4.461 -7.34,-10.512 -7.34,-18.141 0,-7.628 2.94,-13.902 8.81,-18.8 5.76,-4.91 17.01,-9.649 33.76,-14.231 16.75,-4.578 29.91,-10.789 39.48,-18.629 9.57,-7.851 14.41,-20.05 14.52,-36.609 0,-16.563 -5.93,-29.961 -17.78,-40.1993 -11.85,-10.2422 -28,-15.3633 -48.45,-15.3633"
         style="fill:#ffffff;fill-opacity:1;fill-rule:nonzero;stroke:none"
         id="path58" /><path
         d="m 1329.13,271.609 c -6.72,0 -12.29,2.442 -16.74,7.34 -4.43,4.781 -6.66,10.653 -6.66,17.61 0,6.961 1.66,12.89 4.98,17.781 3.31,4.898 8.67,7.351 16.07,7.351 7.39,0 13.48,-2.453 18.27,-7.351 4.78,-4.891 7.17,-10.762 7.17,-17.61 0,-6.851 -2.16,-12.781 -6.51,-17.781 -4.34,-5.008 -9.87,-7.449 -16.58,-7.34 z m 19.02,-20.07 V 103.25 c 0,-7.1719 1.79,-11.8516 5.38,-14.0195 3.59,-2.1797 9.84,-3.8711 18.76,-5.0586 V 69.1602 h -88.58 v 15.0117 c 5.98,0.8672 10.39,1.7383 13.22,2.6094 2.82,0.8671 5.32,2.6093 7.5,5.2187 2.17,2.6094 3.26,6.3594 3.26,11.25 v 109.629 l -22.35,14.031 v 7.988 l 53.51,16.641 h 9.3"
         style="fill:#ffffff;fill-opacity:1;fill-rule:nonzero;stroke:none"
         id="path60" /><path
         d="m 1451.74,287.922 v -39.641 h 48.77 v -19.742 h -48.77 V 114.371 c 0,-8.832 1.95,-15.1093 5.87,-18.8593 3.91,-3.75 10.55,-5.6328 19.9,-5.6328 9.35,0 18.6,2.3711 27.73,7.1211 l 4.24,-10.1719 c -13.81,-13.957 -31.86,-20.9297 -54.16,-20.9297 -29.36,0 -44.04,14.5 -44.04,43.4806 v 119.16 h -23.65 v 12.52 c 19.53,10.269 36.84,25.882 51.93,46.863 h 12.18"
         style="fill:#ffffff;fill-opacity:1;fill-rule:nonzero;stroke:none"
         id="path62" /><path
         d="m 1513.4,248.281 h 88.57 V 233.27 c -9.35,-1.309 -15.65,-2.719 -18.92,-4.239 -5.66,-2.492 -6.36,-8.57 -2.12,-18.242 l 39.48,-96.25 37.35,96.25 c 1.74,4.68 2.62,8.52 2.62,11.57 0,3.039 -1.58,5.262 -4.74,6.672 -3.26,1.41 -9.46,2.828 -18.59,4.239 v 15.011 h 66.56 V 233.27 c -7.4,-2.719 -12.08,-4.719 -14.03,-6.032 -1.96,-1.297 -3.76,-3.738 -5.39,-7.32 L 1609.32,38.1602 C 1603.88,25.3281 1597.9,15.7695 1591.37,9.46094 1584.85,3.14844 1576.04,0 1564.95,0 c -11.1,0 -19.47,4.12891 -25.13,12.3906 v 20.0703 h 18.11 c 11.09,0.1094 19.19,1.5704 24.31,4.3985 5.11,2.8203 9.46,8.789 13.05,17.9101 l 5.38,13.3516 -67.86,151.7969 c -1.42,3.363 -3.21,5.75 -5.39,7.16 -2.17,1.422 -6.84,3.473 -14.02,6.192 v 15.011"
         style="fill:#ffffff;fill-opacity:1;fill-rule:nonzero;stroke:none"
         id="path64" /><path
         d="M 20,917.762 V 940.91 H 2497.62 V 917.762 H 20"
         style="fill:#ffffff;fill-opacity:1;fill-rule:nonzero;stroke:none"
         id="path66" /></g></g></svg>
